<?xml version="1.0" standalone="no"?>
<!DOCTYPE svg PUBLIC "-//W3C//DTD SVG 20010904//EN"
 "http://www.w3.org/TR/2001/REC-SVG-20010904/DTD/svg10.dtd">
<svg version="1.0" xmlns="http://www.w3.org/2000/svg"
 width="509.000000pt" height="497.000000pt" viewBox="0 0 509.000000 497.000000"
 preserveAspectRatio="xMidYMid meet">
<metadata>
Created by potrace 1.15, written by Peter Selinger 2001-2017
</metadata>
<g transform="translate(0.000000,497.000000) scale(0.100000,-0.100000)"
fill="#000000" stroke="none">
<path d="M2555 4690 c-11 -5 -78 -34 -148 -64 -240 -102 -524 -273 -767 -462
-139 -108 -411 -371 -523 -507 -257 -311 -449 -647 -588 -1031 l-31 -86 -180
0 c-166 0 -179 -1 -174 -17 3 -10 30 -102 61 -204 l55 -185 -60 -210 c-33
-115 -60 -210 -60 -211 0 -2 43 -3 96 -3 l96 0 -6 -72 c-14 -178 -17 -378 -7
-558 10 -184 12 -196 33 -214 39 -32 334 -171 508 -239 1306 -513 2670 -451
3847 175 72 38 134 76 137 83 3 8 10 97 16 199 9 141 9 235 0 393 -6 114 -12
212 -13 218 -1 6 31 11 86 13 48 1 87 6 87 10 0 4 -27 97 -60 207 l-59 200 55
190 c30 104 57 198 60 208 5 16 -8 17 -174 17 l-179 0 -33 88 c-292 782 -832
1410 -1576 1835 -117 66 -469 241 -478 236 0 0 -10 -4 -21 -9z m188 -225 c825
-406 1404 -1012 1721 -1804 25 -63 45 -115 43 -116 -1 -2 -112 0 -247 4 l-244
6 -229 310 c-126 171 -232 316 -236 323 -6 11 -21 5 -65 -23 l-57 -36 -78 56
c-44 30 -84 55 -90 55 -6 0 -44 -16 -83 -36 l-72 -36 -51 25 -52 25 -98 -146
-98 -146 -57 64 -57 63 -43 -30 -44 -30 -51 23 c-50 23 -53 23 -99 8 l-48 -16
-42 41 c-23 22 -47 41 -53 41 -6 0 -27 -18 -48 -41 -20 -22 -38 -39 -39 -37
-1 1 -28 37 -61 78 -32 41 -60 77 -61 79 -2 2 -25 -15 -52 -37 l-49 -41 -88
39 -89 39 -108 -75 c-60 -41 -112 -74 -115 -74 -4 0 -31 23 -60 52 -29 28 -54
50 -56 47 -2 -2 -80 -131 -172 -285 l-169 -282 -245 -4 c-135 -3 -247 -4 -249
-3 -4 3 94 245 136 336 91 197 247 446 400 639 102 128 382 406 517 514 134
106 351 252 501 335 127 71 340 169 367 170 10 1 87 -33 170 -74z m-1853
-2135 l0 -40 -75 0 -75 0 0 -206 0 -205 -42 3 -43 3 -3 203 -2 202 -75 0 -75
0 0 40 0 40 195 0 195 0 0 -40z m410 18 c102 -53 108 -201 11 -260 -20 -12
-37 -22 -39 -24 -2 -1 24 -39 57 -85 34 -45 61 -86 61 -91 0 -4 -21 -8 -47 -8
l-48 1 -59 84 -59 85 -53 0 -54 0 0 -86 0 -85 -42 3 -43 3 -3 243 -2 242 138
0 c123 0 142 -2 182 -22z m546 -223 c57 -131 104 -241 104 -243 0 -2 -21 -2
-46 0 -45 3 -46 4 -69 58 l-23 55 -115 3 -114 3 -26 -61 c-26 -60 -27 -60 -68
-60 -35 0 -41 3 -37 18 3 10 50 120 104 245 l99 228 43 -3 43 -3 105 -240z
m274 0 l0 -245 -40 0 -40 0 0 245 0 245 40 0 40 0 0 -245z m220 40 l0 -205
124 0 124 0 4 -36 c2 -21 0 -38 -7 -40 -6 -3 -83 -3 -170 -2 l-160 3 -3 243
-2 242 45 0 45 0 0 -205z m430 105 l0 -100 115 0 115 0 0 100 0 100 45 0 45 0
-2 -242 -3 -243 -42 -3 -43 -3 0 105 0 106 -115 0 -115 0 0 -105 0 -105 -45 0
-45 0 0 245 0 245 45 0 45 0 0 -100z m800 60 l0 -40 -135 0 -135 0 0 -60 0
-60 120 0 120 0 0 -40 0 -40 -120 0 -120 0 0 -65 0 -65 135 0 135 0 0 -40 0
-40 -180 0 -180 0 0 245 0 245 180 0 180 0 0 -40z m461 -196 c57 -130 106
-241 108 -246 1 -5 -19 -8 -45 -6 l-48 3 -22 55 -22 55 -117 0 -117 0 -23 -55
c-22 -53 -25 -55 -64 -58 -26 -2 -41 1 -41 8 0 7 46 117 102 246 l102 234 42
0 41 0 104 -236z m509 200 c38 -22 64 -46 85 -79 27 -44 30 -57 30 -130 0 -72
-3 -86 -28 -123 -60 -92 -136 -122 -307 -122 l-100 0 0 246 0 246 133 -4 c126
-3 134 -4 187 -34z m-3975 -751 c-3 -71 -7 -176 -10 -234 -2 -59 -2 -159 2
-224 l6 -117 86 -40 c413 -190 889 -331 1344 -397 122 -18 131 -18 195 -1 227
58 439 185 492 296 49 100 6 220 -112 309 -146 110 -194 186 -160 255 38 77
124 107 342 120 86 5 168 14 183 19 47 18 30 58 -44 105 -24 15 -124 16 -1169
16 -629 0 -1141 2 -1139 4 5 6 2107 8 3214 4 l790 -3 -779 -2 -779 -3 46 -49
c54 -57 66 -93 46 -130 -33 -58 -117 -92 -289 -117 -123 -17 -150 -27 -150
-53 0 -28 16 -37 134 -76 129 -42 196 -78 273 -148 65 -60 110 -127 143 -212
30 -77 34 -238 8 -297 -21 -46 -30 -46 149 -12 375 69 743 188 1091 354 l130
62 8 87 c5 68 -2 553 -9 596 -1 5 19 11 46 13 26 2 47 -1 47 -5 0 -4 5 -51 10
-103 11 -108 14 -517 4 -589 l-6 -48 -117 -61 c-477 -247 -987 -399 -1541
-458 -186 -20 -606 -22 -790 -5 -597 57 -1198 224 -1690 471 l-99 50 -7 45
c-9 60 -1 676 9 693 5 6 28 12 52 12 l45 0 -5 -127z"/>
<path d="M2325 4026 c-68 -29 -109 -118 -85 -181 10 -27 9 -32 -14 -50 -35
-28 -59 -89 -50 -129 15 -68 72 -113 134 -104 26 4 34 0 45 -21 25 -48 61 -74
112 -78 59 -5 110 20 133 66 12 25 19 30 35 25 11 -4 39 -8 62 -8 35 0 49 5
76 32 26 25 41 32 73 32 139 0 223 165 140 274 -42 55 -77 69 -158 64 -64 -5
-70 -4 -84 17 -37 57 -132 69 -194 25 l-31 -22 -27 25 c-49 46 -109 58 -167
33z"/>
<path d="M1070 2209 l0 -81 91 4 c81 3 93 6 110 27 28 35 25 85 -7 110 -22 17
-41 21 -110 21 l-84 0 0 -81z"/>
<path d="M1656 2176 c-20 -46 -36 -87 -36 -90 0 -3 36 -6 79 -6 l79 0 -38 85
c-20 47 -40 88 -42 91 -3 2 -22 -33 -42 -80z"/>
<path d="M3872 2240 c-5 -14 -24 -56 -40 -93 l-31 -67 80 0 c57 0 79 4 78 13
0 6 -17 48 -38 92 -37 76 -39 79 -49 55z"/>
<path d="M4310 2126 l0 -166 63 0 c73 0 138 28 171 73 30 40 30 144 0 183 -41
55 -70 69 -155 73 l-79 3 0 -166z"/>
</g>
</svg>
